<svg width="24" height="24" viewBox="0 0 24 24" fill="none" xmlns="http://www.w3.org/2000/svg">
<path d="M16.93 21.0575H7.57001C6.22593 21.0556 4.93742 20.5209 3.98701 19.5705C3.03661 18.6201 2.50185 17.3316 2.5 15.9875V8.0085C2.50159 6.66425 3.03623 5.37549 3.98666 4.42487C4.9371 3.47424 6.22576 2.93935 7.57001 2.9375H16.93C18.2743 2.93909 19.5631 3.47389 20.5136 4.42458C21.4641 5.37526 21.9987 6.66417 22 8.0085V15.9895C21.9979 17.3333 21.463 18.6215 20.5126 19.5715C19.5622 20.5215 18.2738 21.0559 16.93 21.0575ZM7.57001 4.4355C6.62342 4.43682 5.71598 4.81351 5.04674 5.48294C4.37749 6.15238 4.00106 7.05991 4 8.0065V15.9875C4.00132 16.9339 4.37787 17.8412 5.04709 18.5104C5.71631 19.1796 6.62359 19.5562 7.57001 19.5575H16.93C17.8765 19.5564 18.7839 19.18 19.4532 18.5107C20.1225 17.8414 20.4989 16.934 20.5 15.9875V8.0085C20.4992 7.06183 20.1229 6.15414 19.4536 5.48465C18.7842 4.81516 17.8767 4.43856 16.93 4.4375L7.57001 4.4355Z" fill="#BCBCBC"/>
<path d="M16.0312 16.5487C15.5288 16.5487 15.0378 16.3998 14.6201 16.1207C14.2024 15.8416 13.8768 15.4449 13.6846 14.9808C13.4923 14.5166 13.442 14.0059 13.54 13.5132C13.638 13.0205 13.8799 12.5679 14.2352 12.2127C14.5904 11.8575 15.043 11.6156 15.5357 11.5176C16.0284 11.4196 16.5391 11.4698 17.0032 11.6621C17.4674 11.8543 17.864 12.1799 18.1431 12.5976C18.4222 13.0153 18.5712 13.5064 18.5712 14.0087C18.5704 14.6821 18.3025 15.3278 17.8264 15.8039C17.3502 16.2801 16.7046 16.548 16.0312 16.5487ZM16.0312 12.9687C15.8255 12.9687 15.6244 13.0297 15.4534 13.144C15.2824 13.2583 15.1491 13.4207 15.0704 13.6108C14.9917 13.8008 14.9711 14.0099 15.0112 14.2116C15.0513 14.4134 15.1504 14.5987 15.2958 14.7441C15.4413 14.8896 15.6266 14.9886 15.8283 15.0288C16.0301 15.0689 16.2392 15.0483 16.4292 14.9696C16.6192 14.8909 16.7817 14.7576 16.8959 14.5865C17.0102 14.4155 17.0712 14.2144 17.0712 14.0087C17.0712 13.7329 16.9616 13.4684 16.7666 13.2734C16.5716 13.0783 16.307 12.9687 16.0312 12.9687Z" fill="#BCBCBC"/>
<path d="M17.3933 10.1798C17.2659 10.1801 17.1406 10.148 17.0292 10.0864C16.9177 10.0248 16.8238 9.93581 16.7563 9.82782L15.3833 7.63784C15.0293 7.07136 14.4651 6.6684 13.8144 6.51731C13.1637 6.36621 12.4797 6.47933 11.9123 6.83184L6.92529 9.95482C6.79875 10.0441 6.64812 10.0929 6.49328 10.0948C6.29391 10.0948 6.10262 10.016 5.96118 9.87546C5.81973 9.73495 5.73961 9.54419 5.73829 9.34482C5.73757 9.21058 5.77304 9.07862 5.84097 8.96283C5.90889 8.84704 6.00677 8.7517 6.12429 8.68683L11.1173 5.55983C12.0222 4.99745 13.1131 4.8166 14.1511 5.05689C15.1891 5.29717 16.0895 5.93901 16.6553 6.84183L18.0283 9.03083C18.0992 9.14437 18.1386 9.27483 18.1422 9.40868C18.1458 9.54253 18.1135 9.6749 18.0487 9.79209C17.984 9.90928 17.889 10.007 17.7738 10.0752C17.6586 10.1434 17.5272 10.1795 17.3933 10.1798Z" fill="#BCBCBC"/>
<path d="M21.25 10.1797H3.25C3.05109 10.1797 2.86033 10.1007 2.71968 9.96002C2.57903 9.81937 2.5 9.6286 2.5 9.42969C2.5 9.23078 2.57903 9.04001 2.71968 8.89935C2.86033 8.7587 3.05109 8.67969 3.25 8.67969H21.25C21.4489 8.67969 21.6397 8.7587 21.7803 8.89935C21.921 9.04001 22 9.23078 22 9.42969C22 9.6286 21.921 9.81937 21.7803 9.96002C21.6397 10.1007 21.4489 10.1797 21.25 10.1797Z" fill="#BCBCBC"/>
</svg>
