<svg width="24" height="24" viewBox="0 0 24 24" fill="none" xmlns="http://www.w3.org/2000/svg">
<path fill-rule="evenodd" clip-rule="evenodd" d="M5.18101 4.2724C6.71285 2.58284 9.08873 1.99991 12.2903 1.99991C13.217 1.99991 14.0718 2.05133 14.8421 2.15685C14.9982 2.17822 15.1435 2.24818 15.2576 2.3568L20.9276 7.75681C21.0427 7.86647 21.12 8.00989 21.1484 8.16636C21.3487 9.27368 21.4403 10.551 21.4403 11.9999C21.4403 15.4997 20.9216 18.0652 19.408 19.7317C17.8746 21.4199 15.496 21.9999 12.2903 21.9999C9.08946 21.9999 6.71332 21.4198 5.18123 19.7314C3.66911 18.0651 3.15039 15.4998 3.15039 11.9999C3.15039 8.50471 3.66922 5.93983 5.18101 4.2724ZM6.29226 5.27992C5.18155 6.50499 4.65039 8.5651 4.65039 11.9999C4.65039 15.44 5.18167 17.4998 6.29205 18.7234C7.38246 19.925 9.20131 20.4999 12.2903 20.4999C15.3847 20.4999 17.2061 19.9249 18.2977 18.7231C19.409 17.4996 19.9403 15.4401 19.9403 11.9999C19.9403 10.7184 19.8653 9.61374 19.7131 8.67156L14.4013 3.61273C13.7704 3.53814 13.0651 3.49991 12.2903 3.49991C9.20205 3.49991 7.38292 4.07698 6.29226 5.27992Z" fill="#BCBCBC"/>
<path fill-rule="evenodd" clip-rule="evenodd" d="M14.1846 2.08261C14.5988 2.08261 14.9346 2.4184 14.9346 2.83261V5.49361C14.9346 6.93711 16.1045 8.10661 17.5486 8.10661H20.4996C20.9138 8.10661 21.2496 8.4424 21.2496 8.85661C21.2496 9.27082 20.9138 9.60661 20.4996 9.60661H17.5486C15.2767 9.60661 13.4346 7.76612 13.4346 5.49361V2.83261C13.4346 2.4184 13.7704 2.08261 14.1846 2.08261Z" fill="#BCBCBC"/>
<path fill-rule="evenodd" clip-rule="evenodd" d="M8.91211 12.9805C8.91211 12.5663 9.2479 12.2305 9.66211 12.2305H14.5622C14.9764 12.2305 15.3122 12.5663 15.3122 12.9805C15.3122 13.3947 14.9764 13.7305 14.5622 13.7305H9.66211C9.2479 13.7305 8.91211 13.3947 8.91211 12.9805Z" fill="#BCBCBC"/>
<path fill-rule="evenodd" clip-rule="evenodd" d="M12.1133 9.7807C12.5275 9.7807 12.8633 10.1165 12.8633 10.5307V15.4307C12.8633 15.8449 12.5275 16.1807 12.1133 16.1807C11.6991 16.1807 11.3633 15.8449 11.3633 15.4307V10.5307C11.3633 10.1165 11.6991 9.7807 12.1133 9.7807Z" fill="#BCBCBC"/>
</svg>
