<svg width="24" height="25" viewBox="0 0 24 25" fill="none" xmlns="http://www.w3.org/2000/svg">
<path fill-rule="evenodd" clip-rule="evenodd" d="M7.63081 14.4441C8.04461 14.4257 8.39496 14.7463 8.41334 15.1601C8.44547 15.8838 8.86703 16.2917 9.42262 16.4467C10.0223 16.6141 10.7137 16.4612 11.1392 16.0483C11.3095 15.883 11.5481 15.8082 11.7824 15.8465C12.0167 15.8848 12.2191 16.0317 12.3279 16.2427C12.5202 16.6153 12.7968 16.7859 13.0797 16.8642C13.3873 16.9495 13.697 16.9205 13.8593 16.8764C14.2215 16.778 14.6007 16.9625 14.7468 17.3082L15.7698 19.7287H16.3377V18.6746C16.3377 18.2776 16.647 17.9494 17.0433 17.9259C19.1119 17.803 19.9423 17.1143 20.2445 16.561C20.4165 16.2458 20.4603 15.9067 20.4154 15.5932C20.3566 15.1832 20.6414 14.8032 21.0514 14.7444C21.4615 14.6857 21.8415 14.9705 21.9002 15.3805C21.986 15.9797 21.9043 16.6511 21.561 17.2798C20.9828 18.3387 19.7708 19.1083 17.8377 19.3576V20.3976C17.8377 20.8219 17.5013 21.2287 17.0105 21.2287H15.3228C14.9747 21.2287 14.6847 21.0143 14.5613 20.7225L13.5873 18.4178C13.3068 18.4257 12.9952 18.3973 12.6792 18.3098C12.2696 18.1963 11.8514 17.9817 11.4962 17.6249C10.731 18.033 9.81736 18.1142 9.0194 17.8915C7.91909 17.5844 6.97924 16.6774 6.91481 15.2266C6.89644 14.8128 7.217 14.4625 7.63081 14.4441ZM15.9427 20.138C15.9428 20.1382 15.9426 20.1378 15.9427 20.138Z" fill="#BCBCBC"/>
<path fill-rule="evenodd" clip-rule="evenodd" d="M3.62007 9.39877C3.96403 9.62955 4.05578 10.0955 3.82499 10.4394C2.78781 11.9852 3.23029 13.7727 4.51846 14.5552C4.93689 14.8093 5.46919 14.9312 5.99499 14.9212C6.52934 14.911 6.97273 14.7669 7.22809 14.5852C7.88975 14.1142 8.2217 13.315 8.17157 12.7888C8.13229 12.3764 8.43472 12.0103 8.84706 11.971C9.25941 11.9317 9.62553 12.2342 9.66481 12.6465C9.77201 13.7719 9.13967 15.0657 8.09788 15.8072C7.53234 16.2098 6.77024 16.4067 6.02361 16.4209C5.26843 16.4353 4.44425 16.2651 3.73976 15.8372C1.64916 14.5674 1.11389 11.7878 2.57939 9.60368C2.81018 9.25972 3.27611 9.16798 3.62007 9.39877Z" fill="#BCBCBC"/>
<path fill-rule="evenodd" clip-rule="evenodd" d="M11.4401 4.483C11.496 4.89343 11.2085 5.27141 10.7981 5.32723C9.3469 5.52461 8.20007 6.20098 7.43098 6.65457C7.40939 6.6673 7.38811 6.67986 7.36712 6.69222C7.01023 6.90246 6.55048 6.78358 6.34024 6.42668C6.13 6.06979 6.24888 5.61004 6.60577 5.3998C6.6356 5.38223 6.66648 5.36398 6.69839 5.34512C7.46816 4.89019 8.83936 4.07983 10.5959 3.84092C11.0063 3.78509 11.3843 4.07256 11.4401 4.483Z" fill="#BCBCBC"/>
<path fill-rule="evenodd" clip-rule="evenodd" d="M4.22845 10.0735C4.37514 10.5503 4.73428 10.9697 5.4621 11.155C5.86351 11.2573 6.10605 11.6655 6.00383 12.0669C5.90162 12.4683 5.49336 12.7109 5.09195 12.6087C3.8694 12.2973 3.09885 11.503 2.79476 10.5146C2.5019 9.56265 2.66064 8.50271 3.11453 7.61141C3.57152 6.71401 4.35943 5.92338 5.41218 5.54584C6.48112 5.16249 7.74424 5.23336 9.07883 5.92519C9.44657 6.11582 9.59014 6.56847 9.39951 6.93621C9.20888 7.30395 8.75623 7.44753 8.38849 7.25689C7.37681 6.73245 6.54713 6.73236 5.91853 6.95779C5.27375 7.18902 4.75939 7.68689 4.45119 8.29209C4.13989 8.9034 4.07052 9.56019 4.22845 10.0735Z" fill="#BCBCBC"/>
<path fill-rule="evenodd" clip-rule="evenodd" d="M15.5885 15.5346C15.9972 15.6018 16.2741 15.9876 16.2069 16.3963C16.0708 17.2241 15.5084 17.985 14.4449 18.2709C14.0449 18.3784 13.6334 18.1413 13.5259 17.7413C13.4184 17.3413 13.6555 16.9298 14.0555 16.8223C14.5226 16.6967 14.6814 16.4288 14.7268 16.153C14.7939 15.7443 15.1797 15.4674 15.5885 15.5346Z" fill="#BCBCBC"/>
<path fill-rule="evenodd" clip-rule="evenodd" d="M14.2991 4.52148C14.2991 4.10727 14.6349 3.77148 15.0491 3.77148H15.4291C15.8433 3.77148 16.1791 4.10727 16.1791 4.52148C16.1791 4.9357 15.8433 5.27148 15.4291 5.27148H15.0491C14.6349 5.27148 14.2991 4.9357 14.2991 4.52148ZM17.224 4.52148C17.224 4.10727 17.5598 3.77148 17.974 3.77148H20.868C21.2822 3.77148 21.618 4.10727 21.618 4.52148C21.618 4.9357 21.2822 5.27148 20.868 5.27148H17.974C17.5598 5.27148 17.224 4.9357 17.224 4.52148ZM13.1436 7.96149C13.1436 7.54727 13.4793 7.21149 13.8936 7.21149H22.0233C22.4376 7.21149 22.7733 7.54727 22.7733 7.96149C22.7733 8.3757 22.4376 8.71149 22.0233 8.71149H13.8936C13.4793 8.71149 13.1436 8.3757 13.1436 7.96149ZM14.2988 11.4015C14.2988 10.9873 14.6346 10.6515 15.0488 10.6515H17.6404C18.0546 10.6515 18.3904 10.9873 18.3904 11.4015C18.3904 11.8157 18.0546 12.1515 17.6404 12.1515H15.0488C14.6346 12.1515 14.2988 11.8157 14.2988 11.4015ZM19.7512 11.4015C19.7512 10.9873 20.0869 10.6515 20.5012 10.6515H20.8674C21.2816 10.6515 21.6174 10.9873 21.6174 11.4015C21.6174 11.8157 21.2816 12.1515 20.8674 12.1515H20.5012C20.0869 12.1515 19.7512 11.8157 19.7512 11.4015Z" fill="#BCBCBC"/>
</svg>
