<svg width="24" height="24" viewBox="0 0 24 24" fill="none" xmlns="http://www.w3.org/2000/svg">
<path fill-rule="evenodd" clip-rule="evenodd" d="M4.47056 6.01868C4.08611 6.43213 3.84039 7.0513 3.84039 7.84624V14.9591C3.84039 15.7546 4.08616 16.374 4.47068 16.7874C4.84972 17.195 5.41647 17.4606 6.18222 17.4606H12.1555C12.5532 17.4606 12.8755 17.7829 12.8755 18.1806C12.8755 18.5783 12.5532 18.9006 12.1555 18.9006H6.18222C5.06024 18.9006 4.0961 18.4993 3.41614 17.7681C2.74168 17.0427 2.40039 16.0513 2.40039 14.9591V7.84624C2.40039 6.75441 2.74173 5.76325 3.41602 5.0381C4.0958 4.30705 5.05969 3.90562 6.18128 3.90562H17.3395C18.4588 3.90562 19.4222 4.30735 20.1023 5.03775C20.7771 5.76248 21.1204 6.7535 21.1204 7.84624V9.76761C21.1204 10.1652 20.798 10.4876 20.4004 10.4876C20.0028 10.4876 19.6804 10.1652 19.6804 9.76761V7.84624C19.6804 7.05219 19.4338 6.43291 19.0484 6.01903C18.6684 5.61082 18.1014 5.34562 17.3395 5.34562H6.18128C5.4161 5.34562 4.84954 5.61111 4.47056 6.01868Z" fill="#BCBCBC"/>
<path fill-rule="evenodd" clip-rule="evenodd" d="M5.48438 7.99126C5.48438 7.59361 5.80673 7.27126 6.20437 7.27126H7.55128C7.94893 7.27126 8.27128 7.59361 8.27128 7.99126C8.27128 8.3889 7.94893 8.71126 7.55128 8.71126H6.20437C5.80673 8.71126 5.48438 8.3889 5.48438 7.99126Z" fill="#BCBCBC"/>
<path fill-rule="evenodd" clip-rule="evenodd" d="M11.7587 9.92246C10.9449 9.92246 10.2827 10.5836 10.2827 11.4022C10.2827 12.22 10.9451 12.8819 11.7587 12.8819C12.5734 12.8819 13.2356 12.2198 13.2356 11.4022C13.2356 10.5838 12.5736 9.92246 11.7587 9.92246ZM8.84277 11.4022C8.84277 9.79036 10.1477 8.4825 11.7587 8.4825C13.3705 8.4825 14.6756 9.79017 14.6756 11.4022C14.6756 13.0131 13.3707 14.3219 11.7587 14.3219C10.1475 14.3219 8.84277 13.0129 8.84277 11.4022Z" fill="#BCBCBC"/>
<path fill-rule="evenodd" clip-rule="evenodd" d="M17.6754 13.8956C16.5964 13.8956 15.7203 14.7716 15.7203 15.8545C15.7203 16.9377 16.5967 17.8143 17.6754 17.8143C18.7544 17.8143 19.6315 16.9374 19.6315 15.8545C19.6315 14.7719 18.7547 13.8956 17.6754 13.8956ZM14.2803 15.8545C14.2803 13.9783 15.7991 12.4556 17.6754 12.4556C19.5513 12.4556 21.0715 13.978 21.0715 15.8545C21.0715 17.7307 19.5517 19.2543 17.6754 19.2543C15.7988 19.2543 14.2803 17.7303 14.2803 15.8545Z" fill="#BCBCBC"/>
<path fill-rule="evenodd" clip-rule="evenodd" d="M15.3274 13.5024C15.6088 13.2214 16.0647 13.2217 16.3457 13.5031L20.0249 17.187C20.3059 17.4683 20.3056 17.9242 20.0242 18.2052C19.7429 18.4862 19.2871 18.4859 19.0061 18.2046L15.3268 14.5207C15.0458 14.2393 15.0461 13.7834 15.3274 13.5024Z" fill="#BCBCBC"/>
</svg>
