<svg width="24" height="24" viewBox="0 0 24 24" fill="none" xmlns="http://www.w3.org/2000/svg">
<path fill-rule="evenodd" clip-rule="evenodd" d="M3.13875 12.8307C3.63856 12.2721 4.34161 11.9727 5.14049 11.9727H10.2708C11.0711 11.9727 11.7744 12.2718 12.2742 12.831C12.7685 13.3842 13.0099 14.1308 13.0099 14.9334V18.4296C13.0099 19.2318 12.7684 19.9783 12.2743 20.5315C11.7746 21.0908 11.0712 21.3903 10.2708 21.3903H5.14049C4.34001 21.3903 3.6366 21.0908 3.13697 20.5315C2.64278 19.9783 2.40137 19.2318 2.40137 18.4296V14.9334C2.40137 14.1299 2.64417 13.3834 3.13875 12.8307ZM4.1921 13.8534C3.98745 14.0822 3.84137 14.441 3.84137 14.9334V18.4296C3.84137 18.9223 3.987 19.2811 4.19111 19.5096C4.38979 19.732 4.69594 19.8903 5.14049 19.8903H10.2708C10.7153 19.8903 11.0214 19.732 11.2201 19.5096C11.4242 19.2811 11.5699 18.9223 11.5699 18.4296V14.9334C11.5699 14.4401 11.4241 14.0813 11.2202 13.8531C11.0216 13.6309 10.7156 13.4727 10.2708 13.4727H5.14049C4.69802 13.4727 4.39151 13.6306 4.1921 13.8534Z" fill="#BCBCBC"/>
<path fill-rule="evenodd" clip-rule="evenodd" d="M2.40039 15.5332C2.40039 15.119 2.72275 14.7832 3.12039 14.7832H12.2898C12.6875 14.7832 13.0098 15.119 13.0098 15.5332C13.0098 15.9474 12.6875 16.2832 12.2898 16.2832H3.12039C2.72275 16.2832 2.40039 15.9474 2.40039 15.5332Z" fill="#BCBCBC"/>
<path fill-rule="evenodd" clip-rule="evenodd" d="M12.3848 7.16081C12.3848 4.6479 14.3412 2.61133 16.7531 2.61133C19.1653 2.61133 21.1207 4.64814 21.1207 7.16081C21.1207 9.67347 19.1653 11.7103 16.7531 11.7103C14.3412 11.7103 12.3848 9.67372 12.3848 7.16081ZM16.7531 4.11133C15.136 4.11133 13.8248 5.47682 13.8248 7.16081C13.8248 8.8448 15.136 10.2103 16.7531 10.2103C18.3701 10.2103 19.6807 8.84505 19.6807 7.16081C19.6807 5.47657 18.3701 4.11133 16.7531 4.11133Z" fill="#BCBCBC"/>
<path fill-rule="evenodd" clip-rule="evenodd" d="M20.3997 14.7773C20.7975 14.7773 21.1197 15.1131 21.1197 15.5273C21.1197 18.7638 18.6004 21.3881 15.4935 21.3881C15.2577 21.3881 15.0369 21.2679 14.9023 21.0662C14.7677 20.8646 14.7364 20.6071 14.8185 20.3769L15.4009 18.744C15.5395 18.3557 15.9539 18.1579 16.3267 18.3022C16.6994 18.4465 16.8893 18.8782 16.7508 19.2665L16.5822 19.7391C18.3662 19.2398 19.6797 17.5431 19.6797 15.5273C19.6797 15.1131 20.0021 14.7773 20.3997 14.7773Z" fill="#BCBCBC"/>
<path fill-rule="evenodd" clip-rule="evenodd" d="M6.93798 4.25835C5.154 4.75766 3.84039 6.45439 3.84039 8.47015C3.84039 8.88436 3.51803 9.22015 3.12039 9.22015C2.72275 9.22015 2.40039 8.88436 2.40039 8.47015C2.40039 5.23368 4.91973 2.60938 8.02673 2.60938C8.26249 2.60938 8.48332 2.72961 8.6179 2.93124C8.75248 3.13288 8.78377 3.39037 8.70165 3.62058L8.11924 5.25345C7.98074 5.64173 7.56629 5.83956 7.19355 5.69529C6.8208 5.55103 6.6309 5.11931 6.76939 4.73103L6.93798 4.25835Z" fill="#BCBCBC"/>
</svg>
