<svg width="24" height="24" viewBox="0 0 24 24" fill="none" xmlns="http://www.w3.org/2000/svg">
<path fill-rule="evenodd" clip-rule="evenodd" d="M3.8275 3.80182C4.77196 2.78723 6.11828 2.22 7.71126 2.22H15.8077C17.4014 2.22 18.7482 2.78713 19.693 3.80175C20.6323 4.81053 21.1204 6.20303 21.1204 7.76533V13.4229C21.1204 14.2083 20.8169 14.9634 20.2722 15.5302L15.977 20.0038C15.403 20.6023 14.6101 20.94 13.7817 20.94H7.71126C6.12201 20.94 4.77608 20.3724 3.83098 19.3585C2.89111 18.3502 2.40039 16.9578 2.40039 15.3947V7.76533C2.40039 6.20303 2.88847 4.81059 3.8275 3.80182ZM4.88152 4.78297C4.23266 5.48002 3.84039 6.50023 3.84039 7.76533V15.3947C3.84039 16.6589 4.23422 17.6792 4.88434 18.3767C5.52923 19.0686 6.47874 19.5 7.71126 19.5H13.7817C14.2181 19.5 14.6356 19.3221 14.9377 19.007L19.2337 14.5327C19.5203 14.2345 19.6804 13.8369 19.6804 13.4229V7.76533C19.6804 6.50024 19.2881 5.48006 18.6391 4.78305C17.9955 4.09184 17.046 3.66 15.8077 3.66H7.71126C6.47406 3.66 5.52495 4.09174 4.88152 4.78297Z" fill="#BCBCBC"/>
<path fill-rule="evenodd" clip-rule="evenodd" d="M17.2204 13.2506H17.2221H20.3259C20.7236 13.2506 21.0459 13.5729 21.0459 13.9706C21.0459 14.3682 20.7236 14.6906 20.3259 14.6906H17.223C16.0201 14.6938 15.0477 15.6691 15.0484 16.8714V20.1494C15.0484 20.5471 14.726 20.8694 14.3284 20.8694C13.9308 20.8694 13.6084 20.5471 13.6084 20.1494V16.872C13.6084 16.8721 13.6084 16.8719 13.6084 16.872C13.6074 14.8747 15.2237 13.2553 17.2204 13.2506Z" fill="#BCBCBC"/>
<path fill-rule="evenodd" clip-rule="evenodd" d="M6.9209 9.41719C6.9209 8.31901 7.81116 7.42874 8.90935 7.42874H11.265C11.6626 7.42874 11.985 7.7511 11.985 8.14874C11.985 8.54638 11.6626 8.86874 11.265 8.86874H8.90935C8.60646 8.86874 8.3609 9.11429 8.3609 9.41719C8.3609 9.72009 8.60646 9.96566 8.90935 9.96566H10.359C11.4572 9.96566 12.3474 10.8559 12.3474 11.9541C12.3474 13.0522 11.4572 13.9426 10.359 13.9426H8.00332C7.60567 13.9426 7.28332 13.6202 7.28332 13.2226C7.28332 12.8249 7.60567 12.5026 8.00332 12.5026H10.359C10.6619 12.5026 10.9074 12.257 10.9074 11.9541C10.9074 11.6512 10.6619 11.4057 10.359 11.4057H8.90935C7.81116 11.4057 6.9209 10.5154 6.9209 9.41719Z" fill="#BCBCBC"/>
<path fill-rule="evenodd" clip-rule="evenodd" d="M9.6341 6.35623C10.0317 6.35623 10.3541 6.67859 10.3541 7.07623V8.1504C10.3541 8.54805 10.0317 8.8704 9.6341 8.8704C9.23641 8.8704 8.91406 8.54805 8.91406 8.1504V7.07623C8.91406 6.67859 9.23641 6.35623 9.6341 6.35623ZM9.6341 12.5015C10.0317 12.5015 10.3541 12.8239 10.3541 13.2215V14.2863C10.3541 14.684 10.0317 15.0063 9.6341 15.0063C9.23641 15.0063 8.91406 14.684 8.91406 14.2863V13.2215C8.91406 12.8239 9.23641 12.5015 9.6341 12.5015Z" fill="#BCBCBC"/>
</svg>
