<svg width="24" height="24" viewBox="0 0 24 24" fill="none" xmlns="http://www.w3.org/2000/svg">
<path fill-rule="evenodd" clip-rule="evenodd" d="M16.2783 20.7871C16.2783 20.3729 16.6006 20.0371 16.9983 20.0371H18.7375C19.1351 20.0371 19.4575 20.3729 19.4575 20.7871C19.4575 21.2013 19.1351 21.5371 18.7375 21.5371H16.9983C16.6006 21.5371 16.2783 21.2013 16.2783 20.7871Z" fill="#BCBCBC"/>
<path fill-rule="evenodd" clip-rule="evenodd" d="M4.0498 20.7891C4.0498 20.3748 4.37216 20.0391 4.7698 20.0391H13.3939C13.7915 20.0391 14.1139 20.3748 14.1139 20.7891C14.1139 21.2033 13.7915 21.5391 13.3939 21.5391H4.7698C4.37216 21.5391 4.0498 21.2033 4.0498 20.7891Z" fill="#BCBCBC"/>
<path fill-rule="evenodd" clip-rule="evenodd" d="M3.52193 3.75645C4.26839 2.92226 5.32754 2.46094 6.56425 2.46094H16.9556C18.1951 2.46094 19.2548 2.92192 20.001 3.75672C20.742 4.58548 21.1204 5.72191 21.1204 6.98121V12.9436C21.1204 14.2033 20.742 15.34 20.0009 16.1689C19.2545 17.0039 18.1945 17.4648 16.9547 17.4648H6.56425C5.32474 17.4648 4.26516 17.0038 3.5191 16.1688C2.77847 15.3398 2.40039 14.2032 2.40039 12.9436V6.98121C2.40039 5.72108 2.7807 4.58479 3.52193 3.75645ZM4.57529 4.77921C4.12373 5.28384 3.84039 6.03269 3.84039 6.98121V12.9436C3.84039 13.8936 4.12269 14.6426 4.57322 15.1469C5.0183 15.645 5.68064 15.9648 6.56425 15.9648H16.9547C17.8388 15.9648 18.5017 15.6449 18.9471 15.1467C19.398 14.6424 19.6804 13.8935 19.6804 12.9436V6.98121C19.6804 6.03186 19.398 5.28316 18.9472 4.77894C18.5019 4.28076 17.8392 3.96094 16.9556 3.96094H6.56425C5.6844 3.96094 5.02161 4.28042 4.57529 4.77921Z" fill="#BCBCBC"/>
</svg>
