<svg width="24" height="24" viewBox="0 0 24 24" fill="none" xmlns="http://www.w3.org/2000/svg">
<path fill-rule="evenodd" clip-rule="evenodd" d="M8.91336 11.25C9.311 11.25 9.6334 11.5858 9.6334 12C9.6334 13.2224 10.5851 14.2138 11.7586 14.2138C12.2983 14.2138 12.789 14.0052 13.1644 13.6601C13.4625 13.386 13.9175 13.4155 14.1806 13.7261C14.4438 14.0366 14.4154 14.5106 14.1173 14.7847C13.4894 15.362 12.6631 15.7138 11.7586 15.7138C9.78978 15.7138 8.19336 14.0508 8.19336 12C8.19336 11.5858 8.51571 11.25 8.91336 11.25Z" fill="#BCBCBC"/>
<path fill-rule="evenodd" clip-rule="evenodd" d="M11.7594 9.78516C11.2198 9.78516 10.7291 9.99376 10.3537 10.3389C10.0555 10.613 9.60059 10.5835 9.33744 10.2729C9.07429 9.96238 9.10265 9.48842 9.40077 9.21431C10.0287 8.63701 10.855 8.28516 11.7594 8.28516C13.7282 8.28516 15.3247 9.94815 15.3247 11.999C15.3247 12.4132 15.0024 12.749 14.6047 12.749C14.2071 12.749 13.8847 12.4132 13.8847 11.999C13.8847 10.7766 12.9329 9.78516 11.7594 9.78516Z" fill="#BCBCBC"/>
<path fill-rule="evenodd" clip-rule="evenodd" d="M6.54914 6.62966C6.07688 7.15708 5.7818 7.93808 5.7818 8.92429V15.0855C5.7818 16.0687 6.07545 16.8475 6.54663 17.3736C7.01256 17.8938 7.70473 18.2266 8.62352 18.2266H14.8997C15.8189 18.2266 16.5091 17.8939 16.973 17.3744C17.4425 16.8487 17.735 16.0698 17.735 15.0855V8.92429C17.735 7.93604 17.4422 7.15509 16.9727 6.62852C16.5087 6.10823 15.8187 5.77539 14.8997 5.77539H8.62352C7.70864 5.77539 7.01627 6.10801 6.54914 6.62966ZM5.49613 5.60652C6.26319 4.7499 7.35168 4.27539 8.62352 4.27539H14.8997C16.175 4.27539 17.2627 4.74968 18.0277 5.60767C18.7872 6.45939 19.175 7.62788 19.175 8.92429V15.0855C19.175 16.379 18.7869 17.5456 18.0273 18.3961C17.2623 19.2527 16.1748 19.7266 14.8997 19.7266H8.62352C7.34904 19.7266 6.26036 19.2528 5.49374 18.3969C4.73237 17.5468 4.3418 16.3801 4.3418 15.0855V8.92429C4.3418 7.62585 4.73422 6.4574 5.49613 5.60652Z" fill="#BCBCBC"/>
<path fill-rule="evenodd" clip-rule="evenodd" d="M9.46902 18.2266C9.86667 18.2266 10.189 18.5623 10.189 18.9766V20.9975C10.189 21.4117 9.86667 21.7475 9.46902 21.7475C9.07138 21.7475 8.74902 21.4117 8.74902 20.9975V18.9766C8.74902 18.5623 9.07138 18.2266 9.46902 18.2266ZM14.052 18.2266C14.4496 18.2266 14.772 18.5623 14.772 18.9766V20.9975C14.772 21.4117 14.4496 21.7475 14.052 21.7475C13.6544 21.7475 13.332 21.4117 13.332 20.9975V18.9766C13.332 18.5623 13.6544 18.2266 14.052 18.2266Z" fill="#BCBCBC"/>
<path fill-rule="evenodd" clip-rule="evenodd" d="M2.40039 9.61719C2.40039 9.20297 2.72275 8.86719 3.12039 8.86719H5.06052C5.45816 8.86719 5.78052 9.20297 5.78052 9.61719C5.78052 10.0314 5.45816 10.3672 5.06052 10.3672H3.12039C2.72275 10.3672 2.40039 10.0314 2.40039 9.61719ZM2.40039 14.3835C2.40039 13.9693 2.72275 13.6335 3.12039 13.6335H5.06052C5.45816 13.6335 5.78052 13.9693 5.78052 14.3835C5.78052 14.7977 5.45816 15.1335 5.06052 15.1335H3.12039C2.72275 15.1335 2.40039 14.7977 2.40039 14.3835Z" fill="#BCBCBC"/>
<path fill-rule="evenodd" clip-rule="evenodd" d="M9.46902 2.25391C9.86667 2.25391 10.189 2.58969 10.189 3.00391V5.02487C10.189 5.43909 9.86667 5.77487 9.46902 5.77487C9.07138 5.77487 8.74902 5.43909 8.74902 5.02487V3.00391C8.74902 2.58969 9.07138 2.25391 9.46902 2.25391ZM14.052 2.25391C14.4496 2.25391 14.772 2.58969 14.772 3.00391V5.02487C14.772 5.43909 14.4496 5.77487 14.052 5.77487C13.6544 5.77487 13.332 5.43909 13.332 5.02487V3.00391C13.332 2.58969 13.6544 2.25391 14.052 2.25391Z" fill="#BCBCBC"/>
<path fill-rule="evenodd" clip-rule="evenodd" d="M17.7314 9.61719C17.7314 9.20297 18.0538 8.86719 18.4514 8.86719H20.3991C20.7967 8.86719 21.1191 9.20297 21.1191 9.61719C21.1191 10.0314 20.7967 10.3672 20.3991 10.3672H18.4514C18.0538 10.3672 17.7314 10.0314 17.7314 9.61719ZM17.7314 14.3835C17.7314 13.9693 18.0538 13.6335 18.4514 13.6335H20.3991C20.7967 13.6335 21.1191 13.9693 21.1191 14.3835C21.1191 14.7977 20.7967 15.1335 20.3991 15.1335H18.4514C18.0538 15.1335 17.7314 14.7977 17.7314 14.3835Z" fill="#BCBCBC"/>
</svg>
