<svg width="24" height="24" viewBox="0 0 24 24" fill="none" xmlns="http://www.w3.org/2000/svg">
<path fill-rule="evenodd" clip-rule="evenodd" d="M11.4279 3.96484C11.4279 3.55063 11.7503 3.21484 12.1479 3.21484H16.424C18.9083 3.21484 20.9231 5.31362 20.9231 7.90141V13.2342C20.9231 15.823 18.9082 17.9207 16.424 17.9207H7.09671C4.61173 17.9207 2.59668 15.8232 2.59668 13.2342V11.4099C2.59668 10.9957 2.91903 10.6599 3.31668 10.6599C3.71432 10.6599 4.03668 10.9957 4.03668 11.4099V13.2342C4.03668 14.9942 5.40656 16.4207 7.09671 16.4207H16.424C18.1131 16.4207 19.4831 14.9944 19.4831 13.2342V7.90141C19.4831 6.14205 18.113 4.71484 16.424 4.71484H12.1479C11.7503 4.71484 11.4279 4.37906 11.4279 3.96484Z" fill="#BCBCBC"/>
<path fill-rule="evenodd" clip-rule="evenodd" d="M6.40332 21C6.40332 20.5858 6.72568 20.25 7.12332 20.25H16.3992C16.7968 20.25 17.1192 20.5858 17.1192 21C17.1192 21.4142 16.7968 21.75 16.3992 21.75H7.12332C6.72568 21.75 6.40332 21.4142 6.40332 21Z" fill="#BCBCBC"/>
<path fill-rule="evenodd" clip-rule="evenodd" d="M9.89153 16.4317C10.284 16.4982 10.5504 16.8836 10.4865 17.2924L9.88875 21.12C9.82491 21.5288 9.45499 21.8064 9.06251 21.7398C8.67002 21.6733 8.40361 21.288 8.46746 20.8791L9.06524 17.0516C9.12909 16.6427 9.49903 16.3652 9.89153 16.4317Z" fill="#BCBCBC"/>
<path fill-rule="evenodd" clip-rule="evenodd" d="M13.6298 16.4317C14.0224 16.3652 14.3923 16.6427 14.4561 17.0516L15.0539 20.8791C15.1178 21.288 14.8514 21.6733 14.4589 21.7398C14.0665 21.8064 13.6965 21.5288 13.6326 21.12L13.0348 17.2924C12.971 16.8836 13.2374 16.4982 13.6298 16.4317Z" fill="#BCBCBC"/>
<path fill-rule="evenodd" clip-rule="evenodd" d="M6.21353 3.75C5.20621 3.75 4.38922 4.60042 4.38922 5.65032C4.38922 6.69907 5.20603 7.54967 6.21353 7.54967C6.6916 7.54967 7.12674 7.35814 7.45204 7.04479C7.45435 7.04254 7.45665 7.0403 7.45897 7.03808C7.81517 6.69141 8.03783 6.19787 8.03783 5.65032C8.03783 4.60042 7.22083 3.75 6.21353 3.75ZM8.92259 7.54736C9.27316 7.00558 9.47783 6.35289 9.47783 5.65032C9.47783 3.77164 8.01578 2.25 6.21353 2.25C4.41126 2.25 2.94922 3.77164 2.94922 5.65032C2.94922 7.52821 4.41143 9.04967 6.21353 9.04967C6.81998 9.04967 7.38795 8.87736 7.87464 8.57714L8.71734 9.45302C8.99882 9.7456 9.4547 9.74508 9.73558 9.45186C10.0165 9.15865 10.0159 8.68377 9.73443 8.3912L8.92259 7.54736Z" fill="#BCBCBC"/>
</svg>
