<svg width="19" height="17" viewBox="0 0 19 17" fill="none" xmlns="http://www.w3.org/2000/svg">
<path d="M4.10449 5.78863V10.9325C4.10449 11.2605 4.2831 11.5645 4.57105 11.7285L9.0945 14.3012C9.23682 14.3817 9.39755 14.424 9.56106 14.424C9.72457 14.424 9.88529 14.3817 10.0276 14.3012L14.5496 11.7278C14.8383 11.5645 15.0162 11.2612 15.0162 10.9332V5.7879C15.0162 5.45985 14.8383 5.15586 14.5496 4.99256L10.0276 2.41992C9.88529 2.33942 9.72457 2.29712 9.56106 2.29712C9.39755 2.29712 9.23682 2.33942 9.0945 2.41992L4.57105 4.99329C4.42971 5.07248 4.31204 5.18792 4.23016 5.32772C4.14828 5.46752 4.10443 5.62662 4.10449 5.78863Z" fill="#213147"/>
<path d="M10.548 9.3583L9.90281 11.1006C9.88526 11.1489 9.88526 11.2018 9.90281 11.2501L11.0131 14.2477L12.2961 13.518L10.7557 9.3583C10.7479 9.33709 10.7337 9.31881 10.7151 9.30589C10.6966 9.29297 10.6745 9.28605 10.6519 9.28605C10.6292 9.28605 10.6072 9.29297 10.5886 9.30589C10.57 9.31881 10.5558 9.33709 10.548 9.3583ZM11.8412 6.42845C11.8333 6.40724 11.8192 6.38895 11.8006 6.37604C11.782 6.36312 11.76 6.3562 11.7373 6.3562C11.7147 6.3562 11.6926 6.36312 11.6741 6.37604C11.6555 6.38895 11.6413 6.40724 11.6335 6.42845L10.9883 8.17076C10.9707 8.21903 10.9707 8.27194 10.9883 8.3202L12.8064 13.2278L14.0902 12.4981L11.8412 6.42845Z" fill="#12AAFF"/>
<path d="M9.55969 2.61288C9.5917 2.61408 9.62306 2.62229 9.65155 2.63694L14.5468 5.42026C14.5744 5.43601 14.5973 5.45869 14.6134 5.48605C14.6296 5.51342 14.6382 5.54452 14.6386 5.57627V11.1422C14.6386 11.2071 14.6036 11.2661 14.5468 11.2982L9.65155 14.0822C9.62352 14.098 9.59183 14.106 9.55969 14.1056C9.52798 14.1045 9.49689 14.0965 9.46857 14.0822L4.57333 11.3011C4.54565 11.2853 4.5226 11.2625 4.50648 11.235C4.49037 11.2075 4.48174 11.1762 4.48148 11.1444V5.57773C4.48148 5.51285 4.51647 5.4538 4.57333 5.42099L9.46857 2.63767C9.49636 2.62185 9.52771 2.61333 9.55969 2.61288ZM9.55969 1.80005C9.38619 1.80005 9.21123 1.84379 9.05522 1.93346L4.16145 4.71605C4.00851 4.80212 3.88116 4.92723 3.79241 5.07862C3.70365 5.23001 3.65666 5.40224 3.65625 5.57773V11.1436C3.65625 11.4987 3.84871 11.8274 4.16145 12.0046L9.05595 14.7886C9.21012 14.8756 9.38413 14.9214 9.56115 14.9214C9.73817 14.9214 9.91219 14.8756 10.0663 14.7886L14.9609 12.0053C15.1138 11.9193 15.2411 11.7941 15.3299 11.6427C15.4187 11.4914 15.4656 11.3191 15.4661 11.1436V5.57773C15.4656 5.40224 15.4187 5.23001 15.3299 5.07862C15.2411 4.92723 15.1138 4.80212 14.9609 4.71605L10.0649 1.93346C9.91092 1.8459 9.73681 1.79993 9.55969 1.80005Z" fill="#9DCCED"/>
<path d="M6.32422 13.2345L6.77401 12.02L7.68089 12.7621L6.83306 13.5247L6.32422 13.2345Z" fill="#213147"/>
<path d="M9.14771 5.17921H7.90695C7.86172 5.17872 7.81745 5.19227 7.78024 5.21799C7.74303 5.24372 7.71471 5.28034 7.69918 5.32282L5.03906 12.5049L6.32283 13.2347L9.25195 5.32574C9.25782 5.30916 9.2596 5.2914 9.25713 5.27398C9.25467 5.25656 9.24804 5.23999 9.23781 5.22568C9.22758 5.21137 9.21405 5.19974 9.19836 5.19178C9.18267 5.18382 9.1653 5.17903 9.14771 5.17921ZM11.3194 5.17921H10.0779C10.0328 5.17888 9.9887 5.1925 9.95163 5.21821C9.91457 5.24392 9.88636 5.28046 9.87087 5.32282L6.83313 13.5241L8.1169 14.2531L11.4229 5.32574C11.4288 5.30921 11.4305 5.29152 11.4281 5.27416C11.4257 5.2568 11.4191 5.24028 11.409 5.22598C11.3988 5.21169 11.3854 5.20005 11.3698 5.19203C11.3542 5.18402 11.3369 5.17914 11.3194 5.17921Z" fill="white"/>
</svg>
