<svg width="102" height="51" viewBox="0 0 102 51" fill="none" xmlns="http://www.w3.org/2000/svg">
<path d="M55.881 28.3183C55.953 28.6543 56.091 28.9603 56.295 29.2363C56.511 29.5003 56.793 29.7103 57.141 29.8663C57.501 30.0223 57.927 30.1003 58.419 30.1003C59.175 30.1003 59.739 29.9263 60.111 29.5783C60.483 29.2183 60.669 28.7983 60.669 28.3183C60.669 27.9223 60.549 27.5923 60.309 27.3283C60.081 27.0643 59.757 26.8423 59.337 26.6623C58.917 26.4703 58.437 26.2903 57.897 26.1223C57.405 25.9783 56.931 25.8283 56.475 25.6723C56.019 25.5043 55.605 25.3003 55.233 25.0603C54.873 24.8083 54.585 24.4903 54.369 24.1063C54.153 23.7103 54.051 23.2183 54.063 22.6303C54.063 21.8623 54.243 21.2143 54.603 20.6863C54.963 20.1463 55.467 19.7383 56.115 19.4623C56.763 19.1863 57.507 19.0483 58.347 19.0483C59.055 19.0483 59.691 19.1503 60.255 19.3543C60.831 19.5463 61.317 19.8343 61.713 20.2183C62.109 20.5903 62.403 21.0523 62.595 21.6043L60.633 22.2523C60.561 21.9883 60.417 21.7543 60.201 21.5503C59.985 21.3343 59.715 21.1663 59.391 21.0463C59.079 20.9263 58.737 20.8603 58.365 20.8483C57.957 20.8363 57.591 20.8963 57.267 21.0283C56.955 21.1603 56.703 21.3523 56.511 21.6043C56.319 21.8443 56.223 22.1263 56.223 22.4503C56.223 22.8223 56.331 23.1163 56.547 23.3323C56.763 23.5363 57.045 23.7103 57.393 23.8543C57.753 23.9863 58.149 24.1243 58.581 24.2683C59.085 24.4123 59.583 24.5803 60.075 24.7723C60.579 24.9523 61.035 25.1863 61.443 25.4743C61.863 25.7503 62.199 26.1043 62.451 26.5363C62.703 26.9683 62.829 27.5083 62.829 28.1563C62.829 28.8523 62.667 29.4823 62.343 30.0463C62.031 30.6103 61.551 31.0603 60.903 31.3963C60.255 31.7323 59.451 31.9003 58.491 31.9003C57.711 31.9003 56.997 31.7863 56.349 31.5583C55.713 31.3183 55.179 30.9823 54.747 30.5503C54.327 30.1063 54.051 29.5843 53.919 28.9843L55.881 28.3183ZM70.4431 22.7743H72.5851L67.2931 35.3743H65.2771L66.8971 31.5223L63.3871 22.7743H65.6371L68.0131 29.1463L70.4431 22.7743ZM73.5557 22.7743H75.3917L75.5357 23.6563C75.8357 23.3443 76.1897 23.0983 76.5977 22.9183C77.0177 22.7383 77.4677 22.6483 77.9477 22.6483C78.6557 22.6483 79.2617 22.7983 79.7657 23.0983C80.2817 23.3863 80.6777 23.8183 80.9537 24.3943C81.2297 24.9583 81.3677 25.6663 81.3677 26.5183V31.7743H79.3337V26.7883C79.3337 26.0323 79.1777 25.4623 78.8657 25.0783C78.5657 24.6943 78.1097 24.5023 77.4977 24.5023C76.8737 24.5023 76.3997 24.7003 76.0757 25.0963C75.7517 25.4803 75.5897 26.0503 75.5897 26.8063V31.7743H73.5557V22.7743ZM87.0844 31.9003C86.2204 31.9003 85.4464 31.7143 84.7624 31.3423C84.0784 30.9583 83.5444 30.4243 83.1604 29.7403C82.7764 29.0443 82.5844 28.2283 82.5844 27.2923C82.5844 26.3443 82.7824 25.5223 83.1784 24.8263C83.5744 24.1303 84.1204 23.5963 84.8164 23.2243C85.5124 22.8403 86.2864 22.6483 87.1384 22.6483C88.0024 22.6483 88.7764 22.8403 89.4604 23.2243C90.1564 23.5963 90.7084 24.1303 91.1164 24.8263C91.5244 25.5103 91.7284 26.3203 91.7284 27.2563C91.7284 28.2043 91.5184 29.0263 91.0984 29.7223C90.6904 30.4183 90.1324 30.9583 89.4244 31.3423C88.7284 31.7143 87.9484 31.9003 87.0844 31.9003ZM87.0664 30.0823C87.4864 30.0823 87.8824 29.9803 88.2544 29.7763C88.6384 29.5723 88.9504 29.2663 89.1904 28.8583C89.4304 28.4383 89.5504 27.9043 89.5504 27.2563C89.5504 26.6323 89.4364 26.1163 89.2084 25.7083C88.9804 25.2883 88.6804 24.9763 88.3084 24.7723C87.9364 24.5683 87.5344 24.4663 87.1024 24.4663C86.6824 24.4663 86.2924 24.5683 85.9324 24.7723C85.5844 24.9763 85.3024 25.2883 85.0864 25.7083C84.8704 26.1163 84.7624 26.6443 84.7624 27.2923C84.7624 27.9163 84.8644 28.4383 85.0684 28.8583C85.2844 29.2663 85.5664 29.5723 85.9144 29.7763C86.2624 29.9803 86.6464 30.0823 87.0664 30.0823ZM94.3908 28.8763C94.4748 29.2123 94.6188 29.4703 94.8228 29.6503C95.0388 29.8303 95.2728 29.9563 95.5248 30.0283C95.7768 30.0883 96.0168 30.1183 96.2448 30.1183C96.7128 30.1183 97.0788 30.0283 97.3428 29.8483C97.6188 29.6563 97.7568 29.4163 97.7568 29.1283C97.7568 28.8883 97.6668 28.7023 97.4868 28.5703C97.3068 28.4383 97.0728 28.3363 96.7848 28.2643C96.5088 28.1803 96.2208 28.0963 95.9208 28.0123C95.5968 27.9283 95.2488 27.8323 94.8768 27.7243C94.5168 27.6163 94.1748 27.4663 93.8508 27.2743C93.5268 27.0823 93.2628 26.8363 93.0588 26.5363C92.8548 26.2363 92.7528 25.8643 92.7528 25.4203C92.7528 24.8563 92.9088 24.3703 93.2208 23.9623C93.5328 23.5423 93.9588 23.2183 94.4988 22.9903C95.0388 22.7623 95.6448 22.6483 96.3168 22.6483C97.1208 22.6483 97.8168 22.8163 98.4048 23.1523C98.9928 23.4883 99.4188 23.9803 99.6828 24.6283L97.9008 25.2043C97.8168 25.0363 97.6908 24.8923 97.5228 24.7723C97.3668 24.6523 97.1748 24.5683 96.9468 24.5203C96.7308 24.4603 96.5088 24.4303 96.2808 24.4303C95.8968 24.4303 95.5728 24.5083 95.3088 24.6643C95.0448 24.8203 94.9128 25.0423 94.9128 25.3303C94.9128 25.4743 94.9548 25.6003 95.0388 25.7083C95.1348 25.8163 95.2608 25.9063 95.4168 25.9783C95.5728 26.0383 95.7588 26.0983 95.9748 26.1583C96.1908 26.2063 96.4188 26.2663 96.6588 26.3383C97.0428 26.4463 97.4208 26.5663 97.7928 26.6983C98.1768 26.8183 98.5248 26.9743 98.8368 27.1663C99.1608 27.3583 99.4128 27.6103 99.5928 27.9223C99.7848 28.2343 99.8928 28.6303 99.9168 29.1103C99.9168 29.6263 99.7668 30.1003 99.4668 30.5323C99.1668 30.9523 98.7348 31.2883 98.1708 31.5403C97.6188 31.7803 96.9588 31.9003 96.1908 31.9003C95.3028 31.9003 94.5408 31.7083 93.9048 31.3243C93.2688 30.9403 92.8368 30.3223 92.6088 29.4703L94.3908 28.8763Z" fill="#CCCCCC"/>
<path d="M15.5654 20.6328L11.3779 24.8201" stroke="#E4E4E4" stroke-width="4.18743" stroke-linecap="round"/>
<path d="M35.9658 32.7474L31.7783 36.9347" stroke="#E4E4E4" stroke-width="4.18743" stroke-linecap="round"/>
<path d="M24.8011 11.8105L23.4053 13.2063" stroke="#FF7300" stroke-width="4.18743" stroke-linecap="round"/>
<path d="M28.1305 19.2372L8.58887 38.7783" stroke="#E4E4E4" stroke-width="4.18743" stroke-linecap="round"/>
<path d="M39.2962 19.2372L29.5254 29.0077" stroke="#E4E4E4" stroke-width="4.18743" stroke-linecap="round"/>
<path d="M23.9366 34.5907L19.749 38.778" stroke="#FF7300" stroke-width="4.18743" stroke-linecap="round"/>
</svg>
